<?xml version="1.0" standalone="no"?>
<!DOCTYPE svg PUBLIC "-//W3C//DTD SVG 20010904//EN"
 "http://www.w3.org/TR/2001/REC-SVG-20010904/DTD/svg10.dtd">
<svg version="1.0" xmlns="http://www.w3.org/2000/svg"
 width="200.000000pt" height="200.000000pt" viewBox="0 0 200.000000 200.000000"
 preserveAspectRatio="xMidYMid meet">
<metadata>
Created by potrace 1.11, written by Peter Selinger 2001-2013
</metadata>
<g transform="translate(0.000000,200.000000) scale(0.100000,-0.100000)"
fill="#000000" stroke="none">
<path d="M1033 1895 c-112 -24 -216 -97 -277 -193 -96 -153 -85 -367 28 -505
131 -162 350 -212 530 -124 270 134 335 478 130 697 -54 58 -160 115 -243 130
-67 13 -90 12 -168 -5z m265 -94 c75 -41 135 -103 170 -179 24 -50 27 -70 27
-157 0 -89 -3 -106 -28 -157 -38 -77 -107 -144 -187 -182 -57 -27 -75 -31
-150 -30 -119 1 -186 28 -266 108 -81 81 -108 148 -108 266 0 71 4 94 27 143
73 159 188 230 362 224 80 -3 97 -7 153 -36z"/>
<path d="M1107 1764 c-4 -4 -7 -21 -7 -39 0 -26 -5 -33 -34 -43 -57 -21 -86
-58 -86 -109 0 -57 33 -90 120 -123 81 -30 110 -54 110 -91 0 -74 -76 -94
-206 -54 -17 5 -23 2 -27 -16 -8 -28 2 -35 71 -50 50 -12 52 -13 52 -46 0 -29
3 -33 25 -33 22 0 25 4 25 35 0 30 5 37 28 45 51 19 77 39 96 75 16 31 17 42
7 75 -14 46 -52 77 -132 109 -31 12 -66 29 -78 37 -29 20 -28 68 1 88 25 18
112 21 151 7 21 -8 26 -6 35 14 10 21 8 24 -20 34 -17 6 -41 11 -54 11 -19 0
-23 6 -26 38 -2 28 -8 38 -23 40 -12 2 -24 0 -28 -4z"/>
<path d="M1665 991 c-77 -37 -165 -77 -195 -90 l-55 -23 -240 61 -240 60 -180
-39 c-205 -45 -215 -46 -215 -25 0 13 -28 15 -217 13 l-218 -3 -3 -418 -2
-418 142 3 143 3 3 58 3 57 74 0 75 0 0 30 0 30 365 0 364 0 33 28 c127 109
598 523 598 526 0 8 -82 202 -88 208 -4 3 -70 -24 -147 -61z m136 -68 c11 -25
18 -53 17 -60 -2 -8 -129 -124 -283 -258 l-280 -245 -357 0 -358 0 0 244 0
244 67 15 c38 8 127 27 199 42 l130 28 228 -56 c125 -30 229 -57 231 -59 2 -2
7 -22 11 -45 6 -39 4 -42 -17 -47 -13 -3 -163 -26 -334 -51 -397 -58 -365 -50
-365 -86 0 -16 3 -29 8 -29 12 0 766 111 778 115 9 3 8 22 -2 76 -7 40 -13 74
-11 75 7 6 303 143 310 144 4 0 17 -21 28 -47z m-1321 -338 l0 -295 -45 0 -45
0 0 295 0 295 45 0 45 0 0 -295z m-190 -305 c58 -58 -31 -149 -92 -93 -22 20
-23 70 -1 95 21 24 68 23 93 -2z"/>
</g>
</svg>
